<mxfile host="app.diagrams.net" agent="Mozilla/5.0 (Macintosh; Intel Mac OS X 10_15_7) AppleWebKit/605.1.15 (KHTML, like Gecko) Version/17.2.1 Safari/605.1.15" version="25.0.1">
  <diagram name="Page-1" id="ioj-TZ5vd-JdtDHt5NJE">
    <mxGraphModel dx="1397" dy="913" grid="1" gridSize="10" guides="1" tooltips="1" connect="1" arrows="1" fold="1" page="1" pageScale="1" pageWidth="827" pageHeight="1169" math="0" shadow="0">
      <root>
        <mxCell id="0" />
        <mxCell id="1" parent="0" />
        <mxCell id="dzWToyGudheufYmm-Z-X-1" value="" style="shape=internalStorage;whiteSpace=wrap;html=1;backgroundOutline=1;dx=230;dy=50;" vertex="1" parent="1">
          <mxGeometry x="10" y="10" width="470" height="380" as="geometry" />
        </mxCell>
        <mxCell id="dzWToyGudheufYmm-Z-X-2" value="sales dept" style="text;html=1;align=center;verticalAlign=middle;whiteSpace=wrap;rounded=0;" vertex="1" parent="1">
          <mxGeometry x="90" y="20" width="60" height="30" as="geometry" />
        </mxCell>
        <mxCell id="dzWToyGudheufYmm-Z-X-3" value="system" style="text;html=1;align=center;verticalAlign=middle;whiteSpace=wrap;rounded=0;" vertex="1" parent="1">
          <mxGeometry x="330" y="20" width="60" height="30" as="geometry" />
        </mxCell>
        <mxCell id="dzWToyGudheufYmm-Z-X-6" value="identify a booking require credit approval" style="rounded=1;whiteSpace=wrap;html=1;" vertex="1" parent="1">
          <mxGeometry x="70" y="80" width="100" height="40" as="geometry" />
        </mxCell>
        <mxCell id="dzWToyGudheufYmm-Z-X-7" value="send the data to credit bureau" style="rounded=1;whiteSpace=wrap;html=1;" vertex="1" parent="1">
          <mxGeometry x="318.5" y="155" width="105" height="40" as="geometry" />
        </mxCell>
        <mxCell id="dzWToyGudheufYmm-Z-X-8" value="" style="endArrow=classic;html=1;rounded=0;exitX=0.5;exitY=1;exitDx=0;exitDy=0;entryX=0.5;entryY=0;entryDx=0;entryDy=0;" edge="1" parent="1" source="dzWToyGudheufYmm-Z-X-6" target="dzWToyGudheufYmm-Z-X-9">
          <mxGeometry width="50" height="50" relative="1" as="geometry">
            <mxPoint x="380" y="280" as="sourcePoint" />
            <mxPoint x="430" y="230" as="targetPoint" />
          </mxGeometry>
        </mxCell>
        <mxCell id="dzWToyGudheufYmm-Z-X-9" value="enter booking details" style="rounded=1;whiteSpace=wrap;html=1;" vertex="1" parent="1">
          <mxGeometry x="70" y="155" width="100" height="40" as="geometry" />
        </mxCell>
        <mxCell id="dzWToyGudheufYmm-Z-X-11" value="return information" style="rounded=1;whiteSpace=wrap;html=1;" vertex="1" parent="1">
          <mxGeometry x="318.5" y="290" width="105" height="40" as="geometry" />
        </mxCell>
        <mxCell id="dzWToyGudheufYmm-Z-X-12" value="" style="endArrow=classic;html=1;rounded=0;exitX=1;exitY=0.5;exitDx=0;exitDy=0;entryX=0;entryY=0.5;entryDx=0;entryDy=0;" edge="1" parent="1" source="dzWToyGudheufYmm-Z-X-9" target="dzWToyGudheufYmm-Z-X-7">
          <mxGeometry width="50" height="50" relative="1" as="geometry">
            <mxPoint x="380" y="280" as="sourcePoint" />
            <mxPoint x="430" y="230" as="targetPoint" />
          </mxGeometry>
        </mxCell>
        <mxCell id="dzWToyGudheufYmm-Z-X-13" value="" style="endArrow=classic;html=1;rounded=0;exitX=0.5;exitY=1;exitDx=0;exitDy=0;entryX=0.5;entryY=0;entryDx=0;entryDy=0;" edge="1" parent="1" source="dzWToyGudheufYmm-Z-X-11" target="dzWToyGudheufYmm-Z-X-16">
          <mxGeometry width="50" height="50" relative="1" as="geometry">
            <mxPoint x="380" y="396" as="sourcePoint" />
            <mxPoint x="430" y="346" as="targetPoint" />
          </mxGeometry>
        </mxCell>
        <mxCell id="dzWToyGudheufYmm-Z-X-14" value="" style="ellipse;html=1;shape=startState;fillColor=#000000;strokeColor=#ff0000;" vertex="1" parent="1">
          <mxGeometry x="20" y="80" width="20" height="20" as="geometry" />
        </mxCell>
        <mxCell id="dzWToyGudheufYmm-Z-X-15" value="" style="edgeStyle=orthogonalEdgeStyle;html=1;verticalAlign=bottom;endArrow=open;endSize=8;strokeColor=#ff0000;rounded=0;entryX=0;entryY=0.5;entryDx=0;entryDy=0;" edge="1" source="dzWToyGudheufYmm-Z-X-14" parent="1" target="dzWToyGudheufYmm-Z-X-6">
          <mxGeometry relative="1" as="geometry">
            <mxPoint x="35" y="170" as="targetPoint" />
          </mxGeometry>
        </mxCell>
        <mxCell id="dzWToyGudheufYmm-Z-X-16" value="" style="ellipse;html=1;shape=endState;fillColor=#000000;strokeColor=#ff0000;" vertex="1" parent="1">
          <mxGeometry x="356" y="356" width="30" height="30" as="geometry" />
        </mxCell>
        <mxCell id="dzWToyGudheufYmm-Z-X-17" value="" style="shape=internalStorage;whiteSpace=wrap;html=1;backgroundOutline=1;dx=230;dy=50;" vertex="1" parent="1">
          <mxGeometry x="10" y="420" width="470" height="380" as="geometry" />
        </mxCell>
        <mxCell id="dzWToyGudheufYmm-Z-X-18" value="executive team" style="text;html=1;align=center;verticalAlign=middle;whiteSpace=wrap;rounded=0;" vertex="1" parent="1">
          <mxGeometry x="69" y="430" width="110" height="30" as="geometry" />
        </mxCell>
        <mxCell id="dzWToyGudheufYmm-Z-X-19" value="system" style="text;html=1;align=center;verticalAlign=middle;whiteSpace=wrap;rounded=0;" vertex="1" parent="1">
          <mxGeometry x="330" y="430" width="60" height="30" as="geometry" />
        </mxCell>
        <mxCell id="dzWToyGudheufYmm-Z-X-22" value="request system performance" style="rounded=1;whiteSpace=wrap;html=1;" vertex="1" parent="1">
          <mxGeometry x="73.5" y="580" width="101" height="40" as="geometry" />
        </mxCell>
        <mxCell id="dzWToyGudheufYmm-Z-X-23" value="" style="ellipse;html=1;shape=startState;fillColor=#000000;strokeColor=#ff0000;" vertex="1" parent="1">
          <mxGeometry x="10" y="500" width="30" height="30" as="geometry" />
        </mxCell>
        <mxCell id="dzWToyGudheufYmm-Z-X-24" value="" style="edgeStyle=orthogonalEdgeStyle;html=1;verticalAlign=bottom;endArrow=open;endSize=8;strokeColor=#ff0000;rounded=0;entryX=0;entryY=0.5;entryDx=0;entryDy=0;" edge="1" source="dzWToyGudheufYmm-Z-X-23" parent="1" target="dzWToyGudheufYmm-Z-X-52">
          <mxGeometry relative="1" as="geometry">
            <mxPoint x="25" y="590" as="targetPoint" />
            <Array as="points" />
          </mxGeometry>
        </mxCell>
        <mxCell id="dzWToyGudheufYmm-Z-X-25" value="generate reports" style="rounded=1;whiteSpace=wrap;html=1;" vertex="1" parent="1">
          <mxGeometry x="313" y="580" width="101" height="40" as="geometry" />
        </mxCell>
        <mxCell id="dzWToyGudheufYmm-Z-X-26" value="" style="endArrow=classic;html=1;rounded=0;exitX=1;exitY=0.5;exitDx=0;exitDy=0;entryX=0;entryY=0.5;entryDx=0;entryDy=0;" edge="1" parent="1" source="dzWToyGudheufYmm-Z-X-22" target="dzWToyGudheufYmm-Z-X-25">
          <mxGeometry width="50" height="50" relative="1" as="geometry">
            <mxPoint x="380" y="430" as="sourcePoint" />
            <mxPoint x="430" y="380" as="targetPoint" />
          </mxGeometry>
        </mxCell>
        <mxCell id="dzWToyGudheufYmm-Z-X-27" value="" style="endArrow=classic;html=1;rounded=0;exitX=0.5;exitY=1;exitDx=0;exitDy=0;entryX=0.5;entryY=0;entryDx=0;entryDy=0;" edge="1" parent="1" source="dzWToyGudheufYmm-Z-X-25" target="dzWToyGudheufYmm-Z-X-28">
          <mxGeometry width="50" height="50" relative="1" as="geometry">
            <mxPoint x="380" y="610" as="sourcePoint" />
            <mxPoint x="430" y="560" as="targetPoint" />
          </mxGeometry>
        </mxCell>
        <mxCell id="dzWToyGudheufYmm-Z-X-28" value="return reports" style="rounded=1;whiteSpace=wrap;html=1;" vertex="1" parent="1">
          <mxGeometry x="313" y="660" width="101" height="40" as="geometry" />
        </mxCell>
        <mxCell id="dzWToyGudheufYmm-Z-X-29" value="" style="shape=internalStorage;whiteSpace=wrap;html=1;backgroundOutline=1;dx=230;dy=50;" vertex="1" parent="1">
          <mxGeometry x="10" y="820" width="470" height="380" as="geometry" />
        </mxCell>
        <mxCell id="dzWToyGudheufYmm-Z-X-30" value="customer" style="text;html=1;align=center;verticalAlign=middle;whiteSpace=wrap;rounded=0;" vertex="1" parent="1">
          <mxGeometry x="94" y="830" width="60" height="30" as="geometry" />
        </mxCell>
        <mxCell id="dzWToyGudheufYmm-Z-X-31" value="system" style="text;html=1;align=center;verticalAlign=middle;whiteSpace=wrap;rounded=0;" vertex="1" parent="1">
          <mxGeometry x="330" y="830" width="60" height="30" as="geometry" />
        </mxCell>
        <mxCell id="dzWToyGudheufYmm-Z-X-32" value="customer select boking to cancel" style="rounded=1;whiteSpace=wrap;html=1;" vertex="1" parent="1">
          <mxGeometry x="74.5" y="900" width="95.5" height="40" as="geometry" />
        </mxCell>
        <mxCell id="dzWToyGudheufYmm-Z-X-33" value="system checks the cancellation elgibility" style="rounded=1;whiteSpace=wrap;html=1;" vertex="1" parent="1">
          <mxGeometry x="318.5" y="895" width="111.5" height="50" as="geometry" />
        </mxCell>
        <mxCell id="dzWToyGudheufYmm-Z-X-36" value="system calculate the refund amount" style="rounded=1;whiteSpace=wrap;html=1;" vertex="1" parent="1">
          <mxGeometry x="318.5" y="970" width="111.5" height="50" as="geometry" />
        </mxCell>
        <mxCell id="dzWToyGudheufYmm-Z-X-37" value="system process the cancellation and update availbility" style="rounded=1;whiteSpace=wrap;html=1;" vertex="1" parent="1">
          <mxGeometry x="316.75" y="1040" width="111.5" height="50" as="geometry" />
        </mxCell>
        <mxCell id="dzWToyGudheufYmm-Z-X-38" value="system return confirmation" style="rounded=1;whiteSpace=wrap;html=1;" vertex="1" parent="1">
          <mxGeometry x="316.75" y="1110" width="111.5" height="50" as="geometry" />
        </mxCell>
        <mxCell id="dzWToyGudheufYmm-Z-X-39" value="" style="endArrow=classic;html=1;rounded=0;exitX=1;exitY=0.5;exitDx=0;exitDy=0;entryX=0;entryY=0.5;entryDx=0;entryDy=0;" edge="1" parent="1" source="dzWToyGudheufYmm-Z-X-32" target="dzWToyGudheufYmm-Z-X-33">
          <mxGeometry width="50" height="50" relative="1" as="geometry">
            <mxPoint x="310" y="1080" as="sourcePoint" />
            <mxPoint x="360" y="1030" as="targetPoint" />
          </mxGeometry>
        </mxCell>
        <mxCell id="dzWToyGudheufYmm-Z-X-40" value="" style="endArrow=classic;html=1;rounded=0;exitX=0.5;exitY=1;exitDx=0;exitDy=0;entryX=0.5;entryY=0;entryDx=0;entryDy=0;" edge="1" parent="1" source="dzWToyGudheufYmm-Z-X-33" target="dzWToyGudheufYmm-Z-X-36">
          <mxGeometry width="50" height="50" relative="1" as="geometry">
            <mxPoint x="310" y="1080" as="sourcePoint" />
            <mxPoint x="360" y="1030" as="targetPoint" />
          </mxGeometry>
        </mxCell>
        <mxCell id="dzWToyGudheufYmm-Z-X-41" value="" style="endArrow=classic;html=1;rounded=0;exitX=0.5;exitY=1;exitDx=0;exitDy=0;entryX=0.5;entryY=0;entryDx=0;entryDy=0;" edge="1" parent="1" source="dzWToyGudheufYmm-Z-X-36" target="dzWToyGudheufYmm-Z-X-37">
          <mxGeometry width="50" height="50" relative="1" as="geometry">
            <mxPoint x="310" y="1080" as="sourcePoint" />
            <mxPoint x="360" y="1030" as="targetPoint" />
          </mxGeometry>
        </mxCell>
        <mxCell id="dzWToyGudheufYmm-Z-X-43" value="" style="endArrow=classic;html=1;rounded=0;exitX=0.5;exitY=1;exitDx=0;exitDy=0;" edge="1" parent="1" source="dzWToyGudheufYmm-Z-X-37" target="dzWToyGudheufYmm-Z-X-38">
          <mxGeometry width="50" height="50" relative="1" as="geometry">
            <mxPoint x="310" y="1080" as="sourcePoint" />
            <mxPoint x="360" y="1030" as="targetPoint" />
          </mxGeometry>
        </mxCell>
        <mxCell id="dzWToyGudheufYmm-Z-X-44" value="" style="ellipse;html=1;shape=endState;fillColor=#000000;strokeColor=#ff0000;" vertex="1" parent="1">
          <mxGeometry x="357.5" y="1170" width="30" height="30" as="geometry" />
        </mxCell>
        <mxCell id="dzWToyGudheufYmm-Z-X-45" value="" style="endArrow=classic;html=1;rounded=0;exitX=0.5;exitY=1;exitDx=0;exitDy=0;entryX=0.5;entryY=0.333;entryDx=0;entryDy=0;entryPerimeter=0;" edge="1" parent="1" source="dzWToyGudheufYmm-Z-X-38" target="dzWToyGudheufYmm-Z-X-44">
          <mxGeometry width="50" height="50" relative="1" as="geometry">
            <mxPoint x="310" y="1080" as="sourcePoint" />
            <mxPoint x="360" y="1030" as="targetPoint" />
          </mxGeometry>
        </mxCell>
        <mxCell id="dzWToyGudheufYmm-Z-X-46" value="" style="ellipse;html=1;shape=startState;fillColor=#000000;strokeColor=#ff0000;" vertex="1" parent="1">
          <mxGeometry x="20" y="875" width="30" height="30" as="geometry" />
        </mxCell>
        <mxCell id="dzWToyGudheufYmm-Z-X-47" value="" style="edgeStyle=orthogonalEdgeStyle;html=1;verticalAlign=bottom;endArrow=open;endSize=8;strokeColor=#ff0000;rounded=0;entryX=0;entryY=0.5;entryDx=0;entryDy=0;" edge="1" source="dzWToyGudheufYmm-Z-X-46" parent="1" target="dzWToyGudheufYmm-Z-X-32">
          <mxGeometry relative="1" as="geometry">
            <mxPoint x="35" y="965" as="targetPoint" />
            <Array as="points">
              <mxPoint x="35" y="935" />
              <mxPoint x="36" y="935" />
              <mxPoint x="36" y="920" />
            </Array>
          </mxGeometry>
        </mxCell>
        <mxCell id="dzWToyGudheufYmm-Z-X-48" value="get response from credit bureau" style="rounded=1;whiteSpace=wrap;html=1;" vertex="1" parent="1">
          <mxGeometry x="318.5" y="220" width="105" height="40" as="geometry" />
        </mxCell>
        <mxCell id="dzWToyGudheufYmm-Z-X-49" value="" style="endArrow=classic;html=1;rounded=0;exitX=0.5;exitY=1;exitDx=0;exitDy=0;entryX=0.5;entryY=0;entryDx=0;entryDy=0;" edge="1" parent="1" source="dzWToyGudheufYmm-Z-X-7" target="dzWToyGudheufYmm-Z-X-48">
          <mxGeometry width="50" height="50" relative="1" as="geometry">
            <mxPoint x="300" y="190" as="sourcePoint" />
            <mxPoint x="350" y="140" as="targetPoint" />
          </mxGeometry>
        </mxCell>
        <mxCell id="dzWToyGudheufYmm-Z-X-50" value="" style="endArrow=classic;html=1;rounded=0;exitX=0.5;exitY=1;exitDx=0;exitDy=0;entryX=0.5;entryY=0;entryDx=0;entryDy=0;" edge="1" parent="1" source="dzWToyGudheufYmm-Z-X-48" target="dzWToyGudheufYmm-Z-X-11">
          <mxGeometry width="50" height="50" relative="1" as="geometry">
            <mxPoint x="300" y="190" as="sourcePoint" />
            <mxPoint x="350" y="140" as="targetPoint" />
          </mxGeometry>
        </mxCell>
        <mxCell id="dzWToyGudheufYmm-Z-X-51" value="" style="endArrow=classic;html=1;rounded=0;exitX=0.5;exitY=1;exitDx=0;exitDy=0;entryX=0.517;entryY=0.233;entryDx=0;entryDy=0;entryPerimeter=0;" edge="1" parent="1" source="dzWToyGudheufYmm-Z-X-28" target="dzWToyGudheufYmm-Z-X-56">
          <mxGeometry width="50" height="50" relative="1" as="geometry">
            <mxPoint x="300" y="610" as="sourcePoint" />
            <mxPoint x="350" y="560" as="targetPoint" />
          </mxGeometry>
        </mxCell>
        <mxCell id="dzWToyGudheufYmm-Z-X-52" value="user logs in at the end of the month" style="rounded=1;whiteSpace=wrap;html=1;" vertex="1" parent="1">
          <mxGeometry x="73.5" y="495" width="101" height="40" as="geometry" />
        </mxCell>
        <mxCell id="dzWToyGudheufYmm-Z-X-53" value="system checks the user is authorized" style="rounded=1;whiteSpace=wrap;html=1;" vertex="1" parent="1">
          <mxGeometry x="316.75" y="495" width="101" height="40" as="geometry" />
        </mxCell>
        <mxCell id="dzWToyGudheufYmm-Z-X-54" value="" style="endArrow=classic;html=1;rounded=0;exitX=1;exitY=0.5;exitDx=0;exitDy=0;entryX=0;entryY=0.5;entryDx=0;entryDy=0;" edge="1" parent="1" source="dzWToyGudheufYmm-Z-X-52" target="dzWToyGudheufYmm-Z-X-53">
          <mxGeometry width="50" height="50" relative="1" as="geometry">
            <mxPoint x="300" y="600" as="sourcePoint" />
            <mxPoint x="350" y="550" as="targetPoint" />
          </mxGeometry>
        </mxCell>
        <mxCell id="dzWToyGudheufYmm-Z-X-55" value="" style="endArrow=classic;html=1;rounded=0;entryX=0.5;entryY=0;entryDx=0;entryDy=0;exitX=0.5;exitY=1;exitDx=0;exitDy=0;" edge="1" parent="1" source="dzWToyGudheufYmm-Z-X-53" target="dzWToyGudheufYmm-Z-X-22">
          <mxGeometry width="50" height="50" relative="1" as="geometry">
            <mxPoint x="300" y="600" as="sourcePoint" />
            <mxPoint x="350" y="550" as="targetPoint" />
            <Array as="points">
              <mxPoint x="367" y="560" />
              <mxPoint x="124" y="560" />
            </Array>
          </mxGeometry>
        </mxCell>
        <mxCell id="dzWToyGudheufYmm-Z-X-56" value="" style="ellipse;html=1;shape=endState;fillColor=#000000;strokeColor=#ff0000;" vertex="1" parent="1">
          <mxGeometry x="348.5" y="730" width="30" height="30" as="geometry" />
        </mxCell>
        <mxCell id="dzWToyGudheufYmm-Z-X-57" value="&lt;span style=&quot;white-space: pre-wrap; -webkit-user-drag: none; margin: 0px; padding: 0px; -webkit-user-select: text; caret-color: rgba(0, 0, 0, 0.847); color: rgba(0, 0, 0, 0.847); text-align: left; font-size: 11pt; line-height: 17px; font-family: Aptos, Aptos_EmbeddedFont, Aptos_MSFontService, sans-serif; font-variant-ligatures: none !important; -webkit-nbsp-mode: normal !important;&quot; class=&quot;TextRun SCXW6668048 BCX4&quot; lang=&quot;EN-US&quot; data-contrast=&quot;auto&quot;&gt;&lt;span style=&quot;-webkit-user-drag: none; margin: 0px; padding: 0px; -webkit-user-select: text; background-position: 0px 100%; background-repeat: repeat-x; background-image: var(--urlContextualSpellingAndGrammarErrorV2,url(&amp;quot;data:image/svg+xml;base64,PHN2ZyB4bWxucz0iaHR0cDovL3d3dy53My5vcmcvMjAwMC9zdmciIHdpZHRoPSI1IiBoZWlnaHQ9IjMiPjxnIGZpbGw9Im5vbmUiIGZpbGwtcnVsZT0iZXZlbm9kZCIgc3Ryb2tlPSIjMzVGIiBzdHJva2UtbGluZWNhcD0icm91bmQiPjxwYXRoIGQ9Ik0wIC41aDVNMCAyLjVoNSIvPjwvZz48L3N2Zz4=&amp;quot;)); border-bottom-width: 1px; border-bottom-style: solid; border-bottom-color: transparent; -webkit-nbsp-mode: normal !important;&quot; class=&quot;NormalTextRun ContextualSpellingAndGrammarErrorV2Themed SCXW6668048 BCX4&quot;&gt;Sales&lt;/span&gt;&lt;span style=&quot;-webkit-user-drag: none; margin: 0px; padding: 0px; -webkit-user-select: text; -webkit-nbsp-mode: normal !important;&quot; class=&quot;NormalTextRun SCXW6668048 BCX4&quot;&gt; department sends the &lt;/span&gt;&lt;span style=&quot;-webkit-user-drag: none; margin: 0px; padding: 0px; -webkit-user-select: text; -webkit-nbsp-mode: normal !important;&quot; class=&quot;NormalTextRun SCXW6668048 BCX4&quot;&gt;Credit Bureau a formal request to check the credit worthiness of the customer.&lt;/span&gt;&lt;/span&gt;&lt;span style=&quot;white-space: pre-wrap; -webkit-user-drag: none; margin: 0px; padding: 0px; -webkit-user-select: text; caret-color: rgba(0, 0, 0, 0.847); color: rgba(0, 0, 0, 0.847); text-align: left; font-size: 11pt; line-height: 17px; font-family: Aptos, Aptos_EmbeddedFont, Aptos_MSFontService, sans-serif; -webkit-nbsp-mode: normal !important;&quot; data-ccp-props=&quot;{}&quot; class=&quot;EOP SCXW6668048 BCX4&quot;&gt;&amp;nbsp;&lt;/span&gt;" style="text;html=1;align=center;verticalAlign=middle;whiteSpace=wrap;rounded=0;" vertex="1" parent="1">
          <mxGeometry x="580" y="120" height="70" as="geometry" />
        </mxCell>
        <mxCell id="dzWToyGudheufYmm-Z-X-58" value="&lt;span style=&quot;white-space: pre-wrap; -webkit-user-drag: none; margin: 0px; padding: 0px; -webkit-user-select: text; caret-color: rgba(0, 0, 0, 0.847); color: rgba(0, 0, 0, 0.847); text-align: left; font-size: 11pt; line-height: 17px; font-family: Aptos, Aptos_EmbeddedFont, Aptos_MSFontService, sans-serif; font-variant-ligatures: none !important; -webkit-nbsp-mode: normal !important;&quot; class=&quot;TextRun SCXW186453781 BCX4&quot; lang=&quot;EN-US&quot; data-contrast=&quot;auto&quot;&gt;&lt;span style=&quot;-webkit-user-drag: none; margin: 0px; padding: 0px; -webkit-user-select: text; -webkit-nbsp-mode: normal !important;&quot; class=&quot;NormalTextRun SCXW186453781 BCX4&quot;&gt;Executive team reviews system performance&lt;/span&gt;&lt;span style=&quot;-webkit-user-drag: none; margin: 0px; padding: 0px; -webkit-user-select: text; -webkit-nbsp-mode: normal !important;&quot; class=&quot;NormalTextRun SCXW186453781 BCX4&quot;&gt; &lt;/span&gt;&lt;span style=&quot;-webkit-user-drag: none; margin: 0px; padding: 0px; -webkit-user-select: text; -webkit-nbsp-mode: normal !important;&quot; class=&quot;NormalTextRun SCXW186453781 BCX4&quot;&gt;at the end of the month&lt;/span&gt;&lt;span style=&quot;-webkit-user-drag: none; margin: 0px; padding: 0px; -webkit-user-select: text; -webkit-nbsp-mode: normal !important;&quot; class=&quot;NormalTextRun SCXW186453781 BCX4&quot;&gt;&amp;nbsp;&lt;/span&gt;&lt;/span&gt;&lt;span style=&quot;white-space: pre-wrap; -webkit-user-drag: none; margin: 0px; padding: 0px; -webkit-user-select: text; caret-color: rgba(0, 0, 0, 0.847); color: rgba(0, 0, 0, 0.847); text-align: left; font-size: 11pt; line-height: 17px; font-family: Aptos, Aptos_EmbeddedFont, Aptos_MSFontService, sans-serif; -webkit-nbsp-mode: normal !important;&quot; data-ccp-props=&quot;{}&quot; class=&quot;EOP SCXW186453781 BCX4&quot;&gt;&amp;nbsp;&lt;/span&gt;" style="text;html=1;align=center;verticalAlign=middle;whiteSpace=wrap;rounded=0;" vertex="1" parent="1">
          <mxGeometry x="600" y="550" width="60" height="30" as="geometry" />
        </mxCell>
        <mxCell id="dzWToyGudheufYmm-Z-X-59" value="&lt;span style=&quot;white-space: pre-wrap; -webkit-user-drag: none; margin: 0px; padding: 0px; -webkit-user-select: text; caret-color: rgba(0, 0, 0, 0.847); color: rgba(0, 0, 0, 0.847); text-align: left; font-size: 11pt; line-height: 17px; font-family: Aptos, Aptos_EmbeddedFont, Aptos_MSFontService, sans-serif; font-variant-ligatures: none !important; -webkit-nbsp-mode: normal !important;&quot; class=&quot;TextRun SCXW56768598 BCX4&quot; lang=&quot;EN-US&quot; data-contrast=&quot;auto&quot;&gt;&lt;span style=&quot;-webkit-user-drag: none; margin: 0px; padding: 0px; -webkit-user-select: text; -webkit-nbsp-mode: normal !important;&quot; class=&quot;NormalTextRun SCXW56768598 BCX4&quot;&gt;Customer wants to cancel a booking&lt;/span&gt;&lt;/span&gt;&lt;span style=&quot;white-space: pre-wrap; -webkit-user-drag: none; margin: 0px; padding: 0px; -webkit-user-select: text; caret-color: rgba(0, 0, 0, 0.847); color: rgba(0, 0, 0, 0.847); text-align: left; font-size: 11pt; line-height: 17px; font-family: Aptos, Aptos_EmbeddedFont, Aptos_MSFontService, sans-serif; -webkit-nbsp-mode: normal !important;&quot; data-ccp-props=&quot;{}&quot; class=&quot;EOP SCXW56768598 BCX4&quot;&gt;&amp;nbsp;&lt;/span&gt;" style="text;html=1;align=center;verticalAlign=middle;whiteSpace=wrap;rounded=0;" vertex="1" parent="1">
          <mxGeometry x="580" y="940" width="60" height="30" as="geometry" />
        </mxCell>
      </root>
    </mxGraphModel>
  </diagram>
</mxfile>
